<svg width="16" height="16" viewBox="0 0 16 16" fill="none" xmlns="http://www.w3.org/2000/svg">
<path d="M10.0003 16H6.00026V13.658C5.3051 13.412 4.66123 13.04 4.10093 12.5607L2.07159 13.7333L0.0715942 10.2667L2.10026 9.09667C1.967 8.37163 1.967 7.62837 2.10026 6.90333L0.0715942 5.73333L2.07159 2.26667L4.10093 3.43933C4.66123 2.95995 5.3051 2.58796 6.00026 2.342V0H10.0003V2.342C10.6954 2.58796 11.3393 2.95995 11.8996 3.43933L13.9289 2.26667L15.9289 5.73333L13.9003 6.90333C14.0335 7.62837 14.0335 8.37163 13.9003 9.09667L15.9289 10.2667L13.9289 13.7333L11.8996 12.5613C11.3392 13.0405 10.6954 13.4122 10.0003 13.658V16ZM7.33359 14.6667H8.66693V12.6487L9.16759 12.5193C9.98894 12.3066 10.7365 11.8734 11.3296 11.2667L11.6916 10.898L13.4403 11.908L14.1069 10.7533L12.3603 9.74467L12.4976 9.24733C12.7234 8.42929 12.7234 7.56538 12.4976 6.74733L12.3603 6.25L14.1069 5.24133L13.4403 4.08667L11.6916 5.09933L11.3296 4.73333C10.7362 4.12756 9.98864 3.69535 9.16759 3.48333L8.66693 3.35133V1.33333H7.33359V3.35133L6.83293 3.48067C6.01159 3.69343 5.264 4.12659 4.67093 4.73333L4.30893 5.102L2.56026 4.08933L1.89359 5.244L3.64026 6.25267L3.50293 6.75C3.27717 7.56804 3.27717 8.43196 3.50293 9.25L3.64026 9.74733L1.89359 10.756L2.56026 11.9107L4.30893 10.9007L4.67093 11.2693C5.26432 11.8751 6.01188 12.3073 6.83293 12.5193L7.33359 12.6487V14.6667ZM8.00026 10.6667C7.47284 10.6667 6.95727 10.5103 6.51874 10.2173C6.08021 9.92424 5.73842 9.50776 5.53658 9.02049C5.33475 8.53322 5.28194 7.99704 5.38483 7.47976C5.48773 6.96248 5.7417 6.48732 6.11464 6.11438C6.48758 5.74144 6.96274 5.48747 7.48002 5.38457C7.9973 5.28168 8.53348 5.33449 9.02075 5.53632C9.50802 5.73815 9.9245 6.07995 10.2175 6.51848C10.5105 6.95701 10.6669 7.47258 10.6669 8C10.6669 8.70724 10.386 9.38552 9.88588 9.88562C9.38578 10.3857 8.70751 10.6667 8.00026 10.6667ZM8.00026 6.66667C7.73655 6.66667 7.47877 6.74487 7.2595 6.89137C7.04024 7.03788 6.86934 7.24612 6.76842 7.48976C6.6675 7.73339 6.6411 8.00148 6.69255 8.26012C6.74399 8.51876 6.87098 8.75634 7.05745 8.94281C7.24392 9.12928 7.4815 9.25627 7.74014 9.30771C7.99878 9.35916 8.26687 9.33276 8.51051 9.23184C8.75414 9.13092 8.96238 8.96003 9.10889 8.74076C9.2554 8.52149 9.33359 8.26371 9.33359 8C9.33359 7.64638 9.19312 7.30724 8.94307 7.05719C8.69302 6.80714 8.35388 6.66667 8.00026 6.66667Z" fill="currentColor"/>
</svg>
