<svg width="16" height="16" viewBox="0 0 16 16" fill="none" xmlns="http://www.w3.org/2000/svg">
<path d="M15.2813 1.13336C15.0568 0.945176 14.7935 0.808883 14.5103 0.734207C14.227 0.659531 13.9308 0.648314 13.6427 0.701356L9.52267 1.45002C8.9331 1.55632 8.39663 1.85838 8 2.30736C7.60367 1.85764 7.06716 1.55486 6.47733 1.44802L2.35733 0.699356C2.06918 0.647031 1.77305 0.658628 1.48987 0.733328C1.20669 0.808028 0.943372 0.944008 0.718521 1.13166C0.49367 1.31931 0.312775 1.55405 0.188618 1.8193C0.0644604 2.08455 7.11635e-05 2.37382 0 2.66669L0 13.8894L8 15.3447L16 13.8894V2.66669C16 2.37404 15.9357 2.08496 15.8115 1.81997C15.6873 1.55498 15.5063 1.32057 15.2813 1.13336ZM7.33333 13.8667L1.33333 12.7774V2.66669C1.33342 2.56908 1.35493 2.47268 1.39636 2.3843C1.43779 2.29592 1.49811 2.21772 1.57308 2.15521C1.64805 2.09271 1.73583 2.04743 1.83022 2.02257C1.92461 1.99771 2.0233 1.99388 2.11933 2.01136L6.23867 2.76002C6.54588 2.81592 6.82374 2.97786 7.02378 3.21763C7.22383 3.45739 7.33338 3.75976 7.33333 4.07202V13.8667ZM14.6667 12.776L8.66667 13.8667V4.07202C8.66662 3.75976 8.77617 3.45739 8.97622 3.21763C9.17626 2.97786 9.45412 2.81592 9.76133 2.76002L13.8807 2.01136C13.9767 1.99388 14.0754 1.99771 14.1698 2.02257C14.2642 2.04743 14.352 2.09271 14.4269 2.15521C14.5019 2.21772 14.5622 2.29592 14.6036 2.3843C14.6451 2.47268 14.6666 2.56908 14.6667 2.66669V12.776Z" fill="currentColor"/>
</svg>
