<svg width="16" height="16" viewBox="0 0 16 16" fill="none" xmlns="http://www.w3.org/2000/svg">
<path d="M14.5057 3.82643L14.5214 3.86061L14.4905 3.8821L8.02572 8.3847L8 8.40262L7.97428 8.3847L1.50946 3.8821L1.47861 3.86061L1.49427 3.82643C1.5548 3.69428 1.6462 3.59128 1.76802 3.51875C1.88839 3.44708 2.02603 3.4058 2.17994 3.39405L2.17993 3.39392H2.18337H13.8166V3.39379L13.8201 3.39405C13.974 3.4058 14.1116 3.44708 14.232 3.51875C14.3538 3.59128 14.4452 3.69428 14.5057 3.82643ZM14.5244 5.51785L14.5951 5.46876V5.55481V12.8335C14.5951 13.0484 14.5193 13.2296 14.3679 13.3738C14.2177 13.517 14.034 13.5944 13.8191 13.6063L13.8191 13.6063H13.8166H2.18337V13.6064L2.18089 13.6063C1.96603 13.5944 1.78233 13.517 1.63207 13.3738C1.48067 13.2296 1.40489 13.0484 1.40489 12.8335V5.55481V5.46876L1.47557 5.51785L7.61547 9.78291C7.73315 9.85701 7.86101 9.89392 8 9.89392C8.139 9.89392 8.26686 9.85701 8.38453 9.78291L14.5244 5.51785ZM15.337 2.66661C14.9366 2.26379 14.4308 2.0563 13.8162 2.04512H2.18376C1.56921 2.0563 1.06341 2.26379 0.663047 2.66661C0.26237 3.06974 0.0562554 3.56898 0.045 4.16721V12.833C0.0562554 13.4313 0.26237 13.9305 0.663047 14.3336C1.06342 14.7365 1.56922 14.9439 2.18378 14.9551H13.8162C14.4308 14.9439 14.9366 14.7365 15.337 14.3336C15.7376 13.9305 15.9437 13.4313 15.955 12.833V4.16722C15.9437 3.56899 15.7376 3.06975 15.337 2.66661Z" fill="currentColor" />
</svg>
