<svg width="16" height="16" viewBox="0 0 16 16" fill="none" xmlns="http://www.w3.org/2000/svg">
<path d="M9.46683 10.8407C7.52575 10.0188 5.9822 8.47164 5.16483 6.52867L7.43149 4.258L3.25816 0.0813333L1.14416 2.19467C0.777494 2.56343 0.487592 3.00124 0.291227 3.48277C0.0948617 3.9643 -0.00406829 4.47999 0.000160585 5C0.000160585 9.832 6.16816 16 11.0002 16C11.5201 16.0045 12.0358 15.9058 12.5173 15.7094C12.9987 15.513 13.4364 15.2229 13.8048 14.856L15.9188 12.742L11.7422 8.56533L9.46683 10.8407ZM12.8615 13.9133C12.6167 14.156 12.326 14.3476 12.0065 14.4769C11.6869 14.6063 11.3449 14.6708 11.0002 14.6667C6.84483 14.6667 1.33349 9.15533 1.33349 5C1.32957 4.65522 1.39414 4.31309 1.52345 3.99346C1.65277 3.67383 1.84427 3.38305 2.08683 3.138L3.25816 1.96667L5.54949 4.258L3.59283 6.21467L3.75616 6.624C4.23699 7.91021 4.98867 9.07804 5.96026 10.0484C6.93185 11.0187 8.10066 11.7688 9.3875 12.248L9.79149 12.402L11.7422 10.4507L14.0335 12.742L12.8615 13.9133ZM9.33349 1.33333V0C11.101 0.00194106 12.7956 0.704943 14.0454 1.95477C15.2952 3.20459 15.9982 4.89915 16.0002 6.66667H14.6668C14.6652 5.25267 14.1028 3.89703 13.103 2.89718C12.1031 1.89733 10.7475 1.33492 9.33349 1.33333ZM9.33349 4V2.66667C10.394 2.66773 11.4108 3.08949 12.1608 3.83941C12.9107 4.58933 13.3324 5.60613 13.3335 6.66667H12.0002C12.0002 5.95942 11.7192 5.28115 11.2191 4.78105C10.719 4.28095 10.0407 4 9.33349 4Z" fill="currentColor"/>
</svg>
